<?xml version="1.0" encoding="UTF-8" standalone="no"?>
<!-- Created with Inkscape (http://www.inkscape.org/) -->

<svg
   xmlns:dc="http://purl.org/dc/elements/1.1/"
   xmlns:cc="http://creativecommons.org/ns#"
   xmlns:rdf="http://www.w3.org/1999/02/22-rdf-syntax-ns#"
   xmlns:svg="http://www.w3.org/2000/svg"
   xmlns="http://www.w3.org/2000/svg"
   xmlns:sodipodi="http://sodipodi.sourceforge.net/DTD/sodipodi-0.dtd"
   xmlns:inkscape="http://www.inkscape.org/namespaces/inkscape"
   width="420.5625"
   height="157.125"
   viewBox="0 0 111.27383 41.572655"
   version="1.1"
   id="svg3759"
   inkscape:version="0.92.3 (2405546, 2018-03-11)"
   sodipodi:docname="drawing.svg">
  <defs
     id="defs3753" />
  <sodipodi:namedview
     id="base"
     pagecolor="#ffffff"
     bordercolor="#666666"
     borderopacity="1.0"
     inkscape:pageopacity="0.0"
     inkscape:pageshadow="2"
     inkscape:zoom="0.98994949"
     inkscape:cx="778.0445"
     inkscape:cy="-190.19148"
     inkscape:document-units="mm"
     inkscape:current-layer="layer1"
     showgrid="false"
     inkscape:window-width="1920"
     inkscape:window-height="1137"
     inkscape:window-x="-8"
     inkscape:window-y="-8"
     inkscape:window-maximized="1"
     units="px" />
  <metadata
     id="metadata3756">
    <rdf:RDF>
      <cc:Work
         rdf:about="">
        <dc:format>image/svg+xml</dc:format>
        <dc:type
           rdf:resource="http://purl.org/dc/dcmitype/StillImage" />
        <dc:title />
      </cc:Work>
    </rdf:RDF>
  </metadata>
  <g
     inkscape:label="Layer 1"
     inkscape:groupmode="layer"
     id="layer1"
     transform="translate(-48.657952,-21.748827)">
    <g
       aria-label="CJB"
       style="font-style:normal;font-variant:normal;font-weight:normal;font-stretch:normal;font-size:10.58333302px;line-height:1.25;font-family:Wingdings;-inkscape-font-specification:Wingdings;letter-spacing:0px;word-spacing:0px;fill:#ffaaaa;fill-opacity:1;stroke:none;stroke-width:0.26458332"
       id="text3763">
      <path
         d="M 73.140178,51.2416 H 69.44428 q -2.554883,2.926953 -5.531445,4.291211 -0.942578,0.07441 -1.389063,0.07441 -1.265039,0 -2.877344,-0.446484 l -0.892968,0.446484 h -1.066602 q -3.646289,0 -3.646289,-2.604492 0,-0.148828 0.04961,-0.446484 -2.678907,-0.223243 -2.678907,-2.554883 0,-0.248047 0.04961,-0.694531 -0.992188,-0.272852 -1.513086,-0.892969 -0.496094,-0.620117 -0.496094,-1.562695 0,-0.768946 0.545703,-1.63711 -1.339453,-1.438672 -1.339453,-3.199804 0,-2.033985 2.207617,-3.274219 2.207617,-1.240234 5.853906,-1.240234 h 0.620118 Q 57.041936,35.267382 55.975335,33.183788 L 55.57846,32.489257 q -1.289844,-2.455664 -1.289844,-3.795117 0,-3.695899 3.894336,-4.613672 l 0.719336,-0.173633 1.240234,5.506641 4.588867,4.886523 q 0.471289,0.545703 1.63711,2.108398 l 0.694531,0.917774 q 1.116211,1.513086 1.562695,1.860351 0.471289,0.322461 1.488281,0.322461 h 2.902149 q 1.339453,2.852539 1.339453,5.853906 0,2.926953 -1.21543,5.878711 z m -0.818554,-1.289844 q 0.768945,-2.257226 0.768945,-4.316015 0,-2.430859 -0.843359,-4.787305 -3.125391,0 -3.919141,-0.37207 -0.79375,-0.37207 -2.38125,-2.604492 Q 65.301897,37.00371 64.036858,35.41621 L 59.051116,30.108007 58.058928,25.51914 q -2.480468,0.843359 -2.480468,3.175 0,1.215429 0.843359,2.629296 l 0.322461,0.545704 q 1.934766,3.224609 1.934766,6.151562 l 0.0248,0.694531 h -0.892968 q -3.943946,0 -5.928321,0.79375 -1.984375,0.768945 -1.984375,2.356445 0,1.438672 1.016993,2.43086 1.041796,0.992187 2.530078,0.992187 l 1.513086,0.02481 4.489648,-2.033984 q -1.016992,-1.537891 -2.728516,-1.537891 -0.446484,0 -1.141015,0.198438 -0.694531,0.198437 -1.63711,0.595312 l -1.16582,0.04961 -1.16582,-1.240234 2.009179,-0.02481 q 0.868165,-0.37207 1.5875,-0.545703 0.719336,-0.173633 1.314649,-0.173633 3.175,0 4.638476,3.22461 l -0.843359,0.396875 q 1.562695,0.768945 2.406055,2.678906 l -0.967383,0.42168 q 1.141015,0.719336 2.108398,2.455664 l -1.53789,0.719336 q 1.265039,0.917773 2.033984,2.604492 l -3.050977,1.364258 q 0.744141,0.148828 1.26504,0.148828 l 0.967382,-0.02481 q 3.299024,-1.909961 5.357813,-4.638477 z M 61.010686,46.355077 q -0.868164,-1.16582 -2.083593,-1.488281 l -3.695899,1.661914 h -1.314648 q -1.860352,0 -2.827735,-0.520899 -0.322461,0.446485 -0.322461,0.84336 0,0.768945 0.744141,1.16582 0.768945,0.37207 2.282031,0.37207 h 2.629297 z m 1.041797,2.902148 Q 61.92846,49.108397 61.854046,49.009178 61.258733,48.314647 60.440178,47.917772 l -3.795117,1.686719 -4.018359,-0.02481 -0.07441,0.322461 q 0,1.463477 2.902148,1.463477 h 1.860352 z m 0.520899,3.348633 Q 62.399749,52.382616 62.30053,52.258592 61.829241,51.588866 61.109905,51.043163 l -3.54707,1.5875 h -2.282031 v 0.148828 q 0,1.661914 2.406054,1.661914 h 0.818555 z"
         style="font-style:normal;font-variant:normal;font-weight:normal;font-stretch:normal;font-size:50.79999924px;font-family:Wingdings;-inkscape-font-specification:Wingdings;fill:#ffaaaa;stroke-width:0.26458332"
         id="path24" />
      <path
         d="m 100.00365,62.453319 q -7.987104,0 -13.642573,-5.630664 -5.630664,-5.655469 -5.630664,-13.642578 0,-7.987109 5.630664,-13.617773 5.655469,-5.655469 13.642573,-5.655469 7.98711,0 13.61778,5.655469 5.65547,5.630664 5.65547,13.617773 0,7.987109 -5.65547,13.642578 -5.63067,5.630664 -13.61778,5.630664 z m 0,-2.455664 q 6.97012,0 11.88145,-4.911328 4.93613,-4.936133 4.93613,-11.90625 0,-6.970117 -4.93613,-11.90625 -4.91133,-4.936133 -11.88145,-4.936133 -6.970112,0 -11.906245,4.936133 -4.911328,4.936133 -4.911328,11.90625 0,6.970117 4.911328,11.90625 4.936133,4.911328 11.906245,4.911328 z M 88.692718,44.246678 h 1.513086 q 1.810742,7.962305 9.797846,7.962305 7.98711,0 9.79786,-7.962305 h 1.53789 q -0.57051,5.159375 -3.59668,8.086328 -3.00137,2.926954 -7.73907,2.926954 -4.73769,0 -7.739057,-2.926954 -3.001368,-2.926953 -3.571875,-8.086328 z m 5.184179,-4.142382 q -1.265039,0 -2.158008,-0.892969 -0.892968,-0.892969 -0.892968,-2.158008 0,-1.265039 0.892968,-2.158008 0.892969,-0.892968 2.158008,-0.892968 1.289844,0 2.182813,0.892968 0.892968,0.892969 0.892968,2.158008 0,1.265039 -0.917773,2.158008 -0.892969,0.892969 -2.158008,0.892969 z m 12.253513,0 q -1.26504,0 -2.18281,-0.892969 -0.89297,-0.892969 -0.89297,-2.158008 0,-1.265039 0.89297,-2.158008 0.91777,-0.892968 2.18281,-0.892968 1.26504,0 2.15801,0.892968 0.89297,0.892969 0.89297,2.158008 0,1.265039 -0.89297,2.158008 -0.89297,0.892969 -2.15801,0.892969 z"
         style="font-style:normal;font-variant:normal;font-weight:normal;font-stretch:normal;font-size:50.79999924px;font-family:Wingdings;-inkscape-font-specification:Wingdings;fill:#ffaaaa;stroke-width:0.26458332"
         id="path26" />
      <path
         d="m 151.10131,60.791405 q -6.00273,-0.84336 -10.24433,-4.464844 l -5.58106,-0.595312 -7.14375,-3.001368 q 1.81075,-3.819921 5.13457,-3.819921 0.71934,0 1.5627,0.248046 0.84336,0.223243 1.78594,0.719336 1.88515,-0.570507 3.12539,-0.868164 0.29765,-1.5875 0.29765,-2.455664 -2.08359,-1.53789 -3.37343,-3.001367 -1.51309,0.868164 -3.39825,1.63711 -0.44648,4.936132 -5.28339,4.936132 v -7.342187 l 5.75468,-5.357813 -4.71289,-3.993554 q -3.27422,-2.728516 -3.27422,-4.861719 0,-1.513086 1.48829,-3.100586 l 8.13593,5.92832 -0.79375,-1.761132 q -1.04179,-2.306836 -1.04179,-4.117578 0,-2.480469 2.87734,-3.770313 l 5.48184,9.723438 0.22324,-1.761133 q 0.57051,-4.911328 4.44004,-4.911328 0.24804,0 0.86816,0.04961 -0.22324,1.711523 -0.22324,4.092773 0,5.779493 0.91777,12.774414 l 11.80703,15.552539 q -2.6541,4.886524 -6.35,6.052344 z m -4.56406,-21.183203 q -0.62012,-4.787305 -0.62012,-10.566797 0,-1.16582 0.12403,-3.050976 -1.5627,0.421679 -2.18281,1.637109 -0.62012,1.21543 -0.62012,3.919141 0,0.768945 0.14883,2.505273 z m -2.55488,-1.885156 -8.03672,-14.237891 q -1.19062,0.79375 -1.19062,2.083594 0,1.612305 1.43867,4.712891 l 1.21543,2.604492 z m -0.57051,1.016992 -15.92461,-11.509375 q -0.42168,0.719336 -0.42168,1.339453 0,1.785938 3.54707,4.688086 l 4.71289,3.844727 z m 8.11113,20.736718 2.35645,2.604492 q 2.95176,-1.860351 4.53926,-4.812109 l -12.77442,-16.693554 -10.88925,-2.43086 -5.58106,5.134571 0.0248,5.531445 q 2.82773,-0.644922 2.82773,-3.621484 0,-0.396875 -0.0248,-0.892969 2.75332,-0.892969 4.8121,-2.331641 1.83555,1.984375 4.51446,4.117578 0,1.761133 -0.69453,4.01836 -1.09141,0.198437 -2.05879,0.471289 -1.46348,0.446484 -2.23242,0.620117 -0.74415,-0.520899 -1.51309,-0.768945 -0.74414,-0.272852 -1.51309,-0.272852 -1.98437,0 -3.32382,2.00918 l 5.65546,2.38125 5.58106,0.520898 q 4.46484,3.96875 10.29394,4.415234 z"
         style="font-style:normal;font-variant:normal;font-weight:normal;font-stretch:normal;font-size:50.79999924px;font-family:Wingdings;-inkscape-font-specification:Wingdings;fill:#ffaaaa;stroke-width:0.26458332"
         id="path28" />
    </g>
  </g>
</svg>
